<svg width="100" height="101" viewBox="0 0 100 101" fill="none" xmlns="http://www.w3.org/2000/svg">
<path fill-rule="evenodd" clip-rule="evenodd" d="M46.8497 0H53.9969C60.2647 0 65.8074 0.525801 70.6249 1.5774L62.1468 34.4558H91.4662L36.9327 100.195H16.2508L23.1149 70.6267H0.499023V67.5569L46.8497 0ZM24.326 58.6506L52.4294 14.6627L44.4871 45.2099H64.6483L29.8245 89.1978L40.8215 58.6506H24.326Z" fill="white"/>
<path d="M43.297 0H0.499023V62.3787L43.297 0Z" fill="white"/>
<path d="M0.499023 73.5562V100.195H13.2434L19.4274 73.5562H0.499023Z" fill="white"/>
<path d="M40.7389 100.195H56.8578C70.5899 100.195 81.0797 97.8092 88.3271 93.038C95.5746 88.1714 99.1984 81.3486 99.1984 72.5697C99.1984 66.6534 97.5772 61.5959 94.335 57.3973C91.6001 53.8558 87.9154 51.0272 83.2809 48.9114L40.7389 100.195Z" fill="white"/>
<path d="M93.9167 31.5263H65.9276L73.4684 2.28262C77.6618 3.45541 81.232 5.08013 84.1789 7.15677C91.0449 11.928 94.478 18.2736 94.478 26.1938C94.478 28.0462 94.2909 29.8237 93.9167 31.5263Z" fill="white"/>
</svg>
